<?xml version="1.0" standalone="no"?>
<!DOCTYPE svg PUBLIC "-//W3C//DTD SVG 20010904//EN"
 "http://www.w3.org/TR/2001/REC-SVG-20010904/DTD/svg10.dtd">
<svg version="1.0" xmlns="http://www.w3.org/2000/svg"
 width="1070.000000pt" height="1280.000000pt" viewBox="0 0 1070.000000 1280.000000"
 preserveAspectRatio="xMidYMid meet">
<metadata>
Created by potrace 1.15, written by Peter Selinger 2001-2017
</metadata>
<g transform="translate(0.000000,1280.000000) scale(0.100000,-0.100000)"
fill="#2196f3" stroke="none">
<path d="M5700 12781 c-115 -42 -208 -95 -219 -123 -11 -32 -14 -33 -40 -16
-31 19 -92 -5 -139 -56 -30 -32 -50 -46 -73 -48 -27 -2 -37 -11 -53 -43 -14
-26 -29 -41 -44 -43 -33 -5 -45 -37 -39 -103 4 -51 2 -60 -19 -80 -28 -26 -32
-79 -9 -102 16 -17 7 -29 -32 -41 -23 -7 -25 -11 -27 -58 -1 -22 -14 -35 -85
-77 -46 -28 -92 -51 -102 -51 -35 0 -31 -22 18 -101 l49 -80 -23 -87 c-12 -48
-23 -100 -23 -115 0 -30 24 -47 43 -28 26 26 98 -1 164 -62 21 -20 37 -27 49
-23 15 6 16 18 10 112 -7 104 -6 105 14 94 11 -6 26 -10 33 -9 6 1 24 -3 39
-11 20 -9 34 -10 57 -2 l31 11 0 -62 c0 -94 -33 -207 -79 -276 -54 -78 -189
-203 -281 -258 -99 -59 -140 -86 -170 -115 -14 -12 -44 -35 -66 -49 -42 -27
-94 -86 -94 -107 0 -6 -23 -30 -51 -54 -42 -35 -50 -47 -46 -68 4 -20 -1 -30
-26 -47 -75 -53 -178 -211 -185 -283 -4 -42 -2 -49 17 -55 38 -12 24 -44 -49
-112 -65 -60 -117 -136 -181 -265 -32 -63 -25 -95 20 -88 10 1 5 -11 -13 -35
-38 -49 -106 -199 -106 -233 0 -31 -23 -67 -117 -192 -61 -79 -93 -152 -93
-208 0 -22 -2 -23 -17 -11 -17 15 -17 15 2 -48 4 -11 -17 -53 -55 -113 -61
-95 -95 -183 -110 -285 -4 -30 -22 -74 -43 -109 -20 -32 -43 -77 -51 -100 -8
-23 -32 -90 -54 -151 -61 -168 -61 -169 -15 -214 l38 -38 -92 -84 c-51 -46
-92 -88 -91 -94 1 -5 -71 -84 -160 -174 -89 -90 -176 -184 -194 -209 -18 -25
-50 -62 -70 -82 -21 -20 -50 -54 -65 -76 -14 -21 -54 -79 -87 -128 -124 -183
-251 -368 -376 -548 -36 -51 -69 -101 -75 -110 -5 -9 -42 -61 -81 -115 -38
-54 -82 -118 -98 -143 -15 -25 -40 -63 -57 -85 -56 -74 -164 -240 -191 -290
-14 -27 -74 -140 -133 -250 -157 -295 -310 -595 -330 -651 -10 -27 -26 -58
-35 -69 -28 -33 -244 -506 -293 -640 -14 -38 -43 -115 -66 -171 -22 -56 -49
-137 -60 -180 -10 -43 -26 -104 -34 -134 -9 -30 -19 -82 -23 -115 -5 -46 -13
-67 -34 -90 -89 -98 -175 -229 -374 -576 -14 -25 -44 -88 -65 -140 -63 -151
-108 -255 -127 -291 -25 -46 -42 -92 -63 -170 -10 -36 -26 -76 -35 -89 -9 -13
-16 -33 -16 -44 0 -12 -4 -25 -9 -31 -4 -5 -18 -47 -31 -94 -13 -47 -29 -104
-37 -128 -7 -24 -18 -87 -24 -140 -6 -53 -16 -107 -21 -118 -18 -38 46 -203
111 -289 55 -73 69 -85 97 -85 19 0 24 -5 24 -26 0 -42 77 -123 192 -200 124
-84 142 -92 216 -100 53 -5 56 -4 38 10 -11 9 -30 16 -42 16 -12 0 -62 27
-110 60 -209 142 -228 163 -226 243 3 87 141 484 212 608 22 39 40 74 40 79 0
4 -11 15 -24 24 -24 15 -42 72 -49 151 -1 24 -7 31 -27 33 -21 2 -39 -11 -90
-66 -63 -67 -161 -209 -196 -282 -9 -19 -30 -57 -47 -84 l-31 -49 -9 32 c-5
20 -4 45 3 67 6 18 9 38 6 43 -4 5 -2 12 4 16 5 3 10 16 10 28 0 12 16 76 36
142 39 130 68 238 88 325 7 30 23 74 35 97 11 23 21 48 21 55 0 23 162 337
240 467 41 67 88 146 103 174 35 61 163 254 174 260 4 3 18 -10 30 -29 l21
-33 -27 -38 c-15 -21 -40 -66 -56 -101 -15 -34 -34 -67 -42 -74 -8 -6 -27 -39
-43 -72 -16 -34 -62 -122 -103 -196 -62 -113 -78 -135 -100 -138 -29 -4 -43
-28 -26 -48 7 -8 9 -29 6 -51 -5 -27 -1 -42 13 -61 11 -13 20 -31 20 -38 0 -8
11 -14 26 -14 24 0 26 2 20 33 -6 31 -3 35 29 50 38 18 43 11 21 -31 -25 -50
-77 -241 -74 -269 3 -23 7 -18 21 32 38 130 70 210 88 223 11 7 19 19 19 25 0
44 181 332 204 324 6 -2 17 -15 25 -29 14 -23 12 -30 -15 -84 -21 -43 -35 -60
-52 -62 -18 -3 -22 -8 -16 -20 16 -39 15 -64 -4 -124 -30 -90 -46 -188 -33
-201 15 -15 48 11 147 118 49 53 99 98 112 102 18 4 22 10 18 28 -4 16 9 47
45 106 28 46 69 119 91 163 31 59 48 81 70 88 29 10 35 22 18 33 -13 8 -13 27
0 61 10 26 11 26 30 9 22 -20 29 4 -76 -245 -102 -244 -169 -535 -135 -589 7
-10 20 1 54 47 60 81 139 174 144 168 2 -2 -2 -33 -11 -68 -32 -134 -45 -195
-55 -248 -6 -30 -13 -65 -17 -77 -4 -14 -2 -23 4 -23 12 0 20 24 56 180 65
280 95 369 169 495 39 66 88 153 110 194 l40 74 66 -5 c53 -4 117 -24 139 -44
2 -1 -19 -30 -46 -63 -168 -202 -312 -477 -343 -658 -19 -107 0 -243 33 -243
22 0 81 70 117 140 41 79 59 103 41 56 -5 -13 -12 -52 -16 -85 -6 -56 -5 -61
13 -61 17 0 20 7 20 58 1 56 70 288 110 366 8 17 66 99 128 181 61 83 118 160
126 173 12 19 39 31 39 17 0 -19 -43 -85 -55 -85 -17 0 -165 -299 -231 -466
-38 -96 -48 -133 -50 -189 -1 -49 -10 -89 -29 -134 -17 -43 -23 -67 -16 -74 5
-5 33 -13 62 -18 28 -5 54 -11 57 -14 9 -9 -20 -25 -45 -25 -12 0 -27 -9 -33
-20 -9 -17 -4 -27 28 -62 96 -105 185 -368 138 -407 -33 -28 -7 -79 33 -66 17
5 20 1 23 -27 2 -27 8 -33 28 -35 14 -1 37 -5 52 -9 19 -4 37 1 64 20 21 14
42 26 47 26 9 0 9 4 -32 -230 -44 -247 -45 -263 -22 -284 11 -10 30 -16 43
-14 20 3 22 8 20 45 -4 51 20 93 54 93 12 0 25 -3 28 -8 2 -4 -7 -52 -21 -107
-13 -55 -26 -135 -29 -178 -2 -43 -8 -96 -14 -118 -10 -36 -14 -39 -46 -39
-19 0 -63 -13 -97 -28 -155 -71 -282 -42 -512 116 -44 30 -86 59 -92 65 -10 7
-6 19 16 51 66 97 105 202 136 370 17 90 15 151 -7 266 -26 135 -64 90 -161
-190 -17 -51 -27 -66 -45 -68 -23 -3 -31 -35 -12 -47 16 -10 12 -37 -20 -152
-16 -58 -30 -124 -30 -145 0 -45 -4 -46 -125 -23 -116 22 -219 76 -274 144
l-43 54 5 91 c3 69 14 122 46 222 22 72 41 143 41 157 0 14 16 79 36 143 19
65 46 161 58 213 39 160 107 362 127 379 22 19 24 43 7 60 -28 28 -45 13 -63
-55 -22 -83 -41 -125 -48 -103 -12 38 -26 99 -32 137 -4 23 -13 47 -21 54 -17
14 -21 10 -94 -107 -53 -87 -73 -109 -89 -100 -12 7 -41 -3 -41 -15 0 -4 9
-17 21 -27 l20 -19 -45 -100 c-55 -122 -136 -327 -136 -343 0 -7 -14 -25 -31
-41 -29 -27 -31 -32 -19 -54 10 -19 10 -36 0 -88 -15 -84 -8 -115 38 -159 50
-48 72 -58 127 -58 l46 0 -7 -37 c-4 -21 -11 -46 -15 -55 -16 -30 -10 -57 24
-111 18 -28 37 -61 43 -72 15 -29 115 -93 178 -116 30 -10 111 -30 181 -44
126 -26 226 -65 255 -100 7 -9 27 -23 44 -32 17 -9 54 -31 82 -49 71 -47 175
-84 268 -95 73 -8 87 -7 141 13 33 12 77 32 97 45 41 25 58 29 58 12 0 -7 23
-8 69 -3 54 5 76 3 102 -10 20 -10 44 -14 64 -10 25 4 38 0 63 -20 25 -22 37
-25 69 -20 35 5 43 2 70 -25 32 -32 68 -39 102 -21 14 7 24 4 42 -16 20 -21
29 -24 60 -19 29 5 44 1 73 -19 36 -24 39 -24 62 -9 24 15 26 15 59 -22 28
-30 39 -36 57 -30 13 4 37 9 54 12 29 4 33 2 39 -26 9 -42 22 -47 57 -21 17
12 47 24 67 27 33 5 38 2 70 -41 37 -49 45 -52 105 -35 34 9 41 8 62 -12 21
-20 30 -21 92 -16 61 6 71 4 104 -18 l37 -25 33 20 c42 25 74 25 88 0 20 -37
47 -43 84 -21 43 27 46 27 91 -9 44 -35 58 -37 92 -10 32 25 51 25 83 0 14
-11 41 -20 61 -20 25 0 39 -5 43 -16 6 -15 8 -15 30 -1 15 10 27 12 33 6 6 -6
25 -4 52 6 56 19 66 19 99 -4 23 -17 35 -18 81 -11 29 5 56 11 58 14 3 3 27
-6 52 -19 47 -23 64 -23 72 4 4 10 13 6 36 -13 31 -26 67 -34 78 -17 10 17 64
23 99 10 28 -10 46 -10 87 -1 51 12 54 12 76 -13 27 -29 38 -30 73 -10 33 19
89 19 110 0 12 -11 50 -17 134 -22 112 -6 118 -5 169 21 l53 26 41 -20 c48
-23 75 -25 105 -9 17 9 23 8 30 -5 12 -21 37 -21 45 0 4 12 14 14 37 10 21 -4
43 0 70 15 35 18 40 19 62 5 13 -9 45 -16 74 -16 30 0 50 -4 50 -11 0 -7 17
-9 53 -4 28 4 183 9 343 11 274 5 293 6 309 24 10 11 29 20 41 20 13 0 42 7
64 16 28 11 54 14 85 10 25 -4 89 -2 142 3 54 6 145 16 203 21 84 8 112 15
142 35 46 31 53 31 72 3 12 -17 18 -20 28 -10 7 7 22 12 34 12 13 0 32 14 48
35 23 30 29 33 52 25 14 -6 43 -10 64 -10 31 0 43 5 57 26 13 21 22 25 46 20
32 -6 63 7 87 36 13 17 19 18 41 8 21 -10 32 -9 57 4 17 9 36 25 42 36 8 14
21 20 46 20 27 0 43 8 64 30 23 25 33 28 62 24 28 -5 40 -1 67 22 26 21 44 28
81 28 54 1 76 16 85 56 6 26 8 27 35 17 43 -16 83 1 90 38 4 23 10 29 25 27
11 -2 26 -9 34 -15 11 -9 21 -4 47 27 28 33 37 37 62 31 26 -5 33 -1 62 34 17
23 39 41 48 41 9 0 31 -14 49 -32 27 -27 42 -32 90 -36 84 -6 275 46 373 101
41 24 91 49 110 57 36 14 190 125 246 177 31 29 74 125 74 164 0 14 15 27 53
44 28 14 57 25 62 25 6 0 50 33 98 72 49 40 114 91 145 114 l57 40 -2 56 c-2
56 -1 57 31 68 75 25 173 174 163 250 -7 53 -192 645 -245 785 -69 181 -177
431 -225 520 -12 22 -35 66 -52 97 -77 144 -90 165 -121 200 -28 32 -32 41
-24 60 8 18 3 47 -20 128 -17 58 -44 152 -60 210 -16 58 -35 116 -41 130 -6
14 -28 81 -49 150 -21 69 -55 170 -75 225 -20 55 -56 156 -80 225 -48 139
-130 346 -143 364 -5 6 -15 27 -22 46 -7 19 -29 69 -47 110 -71 157 -127 278
-163 355 -74 155 -138 291 -170 360 -80 174 -151 314 -179 355 -17 25 -31 49
-31 53 0 5 -30 58 -67 118 -77 125 -147 245 -198 339 -20 36 -58 99 -85 140
-86 130 -118 183 -154 251 -19 36 -41 71 -50 78 -8 7 -38 54 -66 104 -27 51
-69 119 -93 152 -23 33 -79 117 -123 185 -128 196 -190 276 -391 501 -135 151
-420 418 -563 528 -28 21 -30 25 -16 39 14 14 17 14 35 -2 14 -13 32 -17 65
-15 39 3 48 -1 67 -25 20 -25 27 -28 65 -22 31 4 45 1 55 -10 8 -10 28 -14 63
-13 28 2 61 -1 74 -5 12 -4 38 -2 57 4 27 9 39 8 62 -3 28 -15 78 -12 89 4 8
13 41 11 64 -3 15 -10 29 -8 74 11 33 14 64 20 76 16 13 -4 31 0 45 9 13 9 35
16 48 16 13 0 32 9 42 20 10 11 27 20 37 20 11 0 46 23 77 52 l58 52 -17 61
c-31 107 -119 230 -219 303 -17 13 -38 37 -46 53 -14 26 -14 29 4 39 11 5 29
10 40 10 33 0 36 22 8 45 -15 11 -27 26 -27 32 0 22 -78 112 -192 222 -52 49
-59 62 -28 54 31 -8 25 18 -21 100 -53 94 -71 112 -208 206 -88 60 -122 89
-141 122 -14 24 -63 81 -109 126 -56 56 -81 87 -77 98 9 26 -140 188 -222 241
-44 28 -52 37 -42 49 7 9 22 12 39 9 18 -4 32 0 41 11 13 15 12 19 -7 34 -11
10 -28 32 -38 51 -9 18 -38 55 -63 83 -52 55 -215 181 -249 191 -11 4 -24 13
-27 21 -3 8 -14 15 -25 15 -11 0 -22 4 -25 9 -3 5 -32 18 -63 31 -32 12 -78
30 -103 40 -25 10 -54 21 -64 25 -19 5 -19 6 2 21 32 22 27 47 -18 83 -22 17
-40 37 -40 44 1 12 90 71 142 94 16 7 28 17 28 22 0 6 -20 27 -44 47 -24 20
-53 49 -65 64 l-20 28 32 66 c23 46 40 69 60 77 15 7 32 20 38 30 5 11 20 19
33 19 40 0 66 39 66 100 0 45 5 59 27 82 23 24 27 36 26 86 -1 31 -4 76 -8 99
-5 29 -2 57 8 88 14 40 14 55 2 123 -15 84 -37 157 -66 214 -25 50 -175 197
-224 219 -22 11 -78 44 -125 74 -107 69 -176 96 -265 101 -53 4 -83 0 -125
-15z m773 -3323 l99 -32 -7 -71 c-8 -73 -39 -223 -76 -362 l-22 -82 -48 24
c-26 14 -50 29 -54 35 -3 6 -21 17 -38 25 -18 7 -43 23 -57 34 -23 19 -24 20
-7 39 40 44 9 87 -69 97 l-56 7 6 41 c7 52 100 233 126 247 11 6 20 18 20 27
0 21 55 13 183 -29z m-1336 -407 c14 -20 23 -49 23 -72 0 -33 -3 -38 -28 -44
-15 -3 -41 -5 -57 -4 -17 1 -66 -1 -110 -5 -79 -8 -81 -7 -109 20 -15 16 -34
41 -42 56 -13 25 -13 28 1 28 8 0 15 4 15 9 0 9 61 45 65 39 1 -2 7 -23 14
-48 7 -25 18 -51 23 -57 16 -19 46 -15 53 6 3 11 21 29 41 40 19 11 39 32 46
46 15 33 36 29 65 -14z"/>
<path d="M1637 3096 c-4 -9 2 -17 14 -21 25 -8 34 -1 26 20 -8 19 -33 20 -40
1z"/>
<path d="M512 3048 c4 -28 45 -38 55 -13 7 19 -12 35 -40 35 -13 0 -18 -6 -15
-22z"/>
<path d="M1482 2838 c3 -24 34 -36 50 -20 11 11 -16 42 -38 42 -10 0 -14 -8
-12 -22z"/>
<path d="M333 2673 c-7 -3 -13 -13 -13 -24 0 -14 7 -19 25 -19 15 0 25 6 25
14 0 18 -22 35 -37 29z"/>
<path d="M1314 2558 c-8 -12 24 -40 41 -35 5 2 11 13 13 25 3 18 -2 22 -22 22
-14 0 -28 -5 -32 -12z"/>
<path d="M954 2485 c-9 -23 3 -45 26 -45 25 0 37 25 20 45 -16 19 -39 19 -46
0z"/>
<path d="M700 2475 c-10 -12 -10 -18 0 -30 19 -23 56 -15 52 10 -6 34 -32 44
-52 20z"/>
<path d="M372 2448 c-8 -8 -9 -15 -1 -25 18 -21 41 -16 37 9 -4 26 -19 33 -36
16z"/>
<path d="M875 2334 c-14 -15 -15 -19 -2 -32 18 -17 37 -8 37 18 0 27 -16 33
-35 14z"/>
<path d="M204 2315 c-8 -20 4 -35 27 -35 23 0 26 35 3 44 -22 8 -24 8 -30 -9z"/>
<path d="M1102 2283 c4 -22 43 -25 43 -3 0 8 -11 16 -23 18 -19 3 -23 0 -20
-15z"/>
<path d="M664 2225 c-7 -18 13 -45 33 -45 19 0 28 27 13 45 -16 19 -39 19 -46
0z"/>
<path d="M160 2070 c0 -15 5 -20 18 -18 9 2 17 10 17 18 0 8 -8 16 -17 18 -13
2 -18 -3 -18 -18z"/>
<path d="M1522 2028 c3 -25 34 -36 52 -18 8 8 6 15 -8 26 -29 21 -48 18 -44
-8z"/>
<path d="M1262 2018 c3 -25 34 -36 51 -19 14 14 -9 41 -35 41 -14 0 -19 -6
-16 -22z"/>
<path d="M560 1916 c0 -20 24 -36 39 -26 8 4 11 15 8 24 -8 20 -47 21 -47 2z"/>
<path d="M1104 1835 c-4 -9 -2 -21 4 -27 15 -15 44 -1 40 19 -4 23 -36 29 -44
8z"/>
<path d="M1420 1815 c0 -19 24 -29 46 -21 13 5 14 9 4 21 -16 20 -50 19 -50 0z"/>
<path d="M1652 1748 c2 -12 10 -23 18 -23 22 0 19 39 -3 43 -15 3 -18 -1 -15
-20z"/>
<path d="M414 1649 c-3 -6 1 -18 10 -27 15 -15 17 -15 32 0 19 19 11 38 -16
38 -10 0 -22 -5 -26 -11z"/>
<path d="M1230 1610 c0 -14 7 -20 23 -20 13 0 26 3 30 6 12 12 -6 34 -29 34
-17 0 -24 -6 -24 -20z"/>
<path d="M1547 1553 c-14 -14 -7 -43 11 -43 26 0 33 10 21 31 -10 20 -21 24
-32 12z"/>
<path d="M950 1490 c0 -11 6 -20 14 -20 21 0 31 21 15 31 -22 14 -29 11 -29
-11z"/>
<path d="M382 1478 c3 -25 34 -36 51 -19 14 14 -9 41 -35 41 -14 0 -19 -6 -16
-22z"/>
<path d="M1302 1363 c2 -12 12 -18 28 -18 36 0 33 29 -3 33 -23 3 -28 0 -25
-15z"/>
<path d="M1050 1351 c0 -26 17 -36 35 -21 23 19 18 40 -10 40 -18 0 -25 -5
-25 -19z"/>
<path d="M1620 1291 c0 -21 28 -37 42 -23 14 14 -2 42 -23 42 -12 0 -19 -7
-19 -19z"/>
<path d="M890 1262 c-25 -20 -20 -42 9 -42 24 0 40 18 34 41 -7 24 -15 24 -43
1z"/>
<path d="M1840 1140 c0 -15 5 -20 18 -18 9 2 17 10 17 18 0 8 -8 16 -17 18
-13 2 -18 -3 -18 -18z"/>
<path d="M1024 1135 c-7 -18 3 -35 22 -35 20 0 30 30 13 41 -20 12 -29 11 -35
-6z"/>
<path d="M1520 1030 c0 -15 7 -20 26 -20 20 0 25 4 20 16 -3 9 -6 18 -6 20 0
2 -9 4 -20 4 -13 0 -20 -7 -20 -20z"/>
<path d="M866 983 c-13 -14 -5 -33 14 -33 11 0 20 6 20 14 0 15 -24 28 -34 19z"/>
<path d="M1843 904 c-3 -8 -1 -20 5 -26 15 -15 43 -2 36 16 -8 21 -34 28 -41
10z"/>
<path d="M1106 853 c-12 -12 -6 -41 10 -47 20 -8 34 1 34 19 0 16 -34 38 -44
28z"/>
<path d="M1577 824 c-14 -15 -6 -34 14 -34 14 0 19 5 17 17 -3 18 -20 27 -31
17z"/>
<path d="M1930 610 c0 -13 7 -20 20 -20 18 0 19 3 10 20 -6 11 -15 20 -20 20
-6 0 -10 -9 -10 -20z"/>
<path d="M1704 605 c-4 -10 -1 -21 7 -26 20 -12 34 -5 34 17 0 24 -33 31 -41
9z"/>
</g>
</svg>
